# xmcd
# 
# Track frame offsets:
#     150
#     17036
#     29138
#     43614
#     57955
#     73448
#     86010
#     98980
#     115615
#     129710
#     146451
# 
# Disc length: 2193
# 
# Revision: 1
# Processed by: cddbd v1.5.2PL0 Copyright (c) Steve Scherf et al.
# Submitted via: fre:ac v1.0.31
# 
DISCID=a0088f0b
DTITLE=The Steeldrivers - The Muscle Shoals Recordings
DYEAR=2015
DGENRE=Country
TTITLE0=Long Way Down
TTITLE1=Drinkin’ Alone
TTITLE2=Ashes of Yesterday
TTITLE3=Day Before Temptation
TTITLE4=Here She Goes
TTITLE5=California Chainshaw
TTITLE6=Hangin’ Around
TTITLE7=Brother John
TTITLE8=Six Feet Away
TTITLE9=Too Much
TTITLE10=River Runs Red
EXTD=
EXTT0=
EXTT1=
EXTT2=
EXTT3=
EXTT4=
EXTT5=
EXTT6=
EXTT7=
EXTT8=
EXTT9=
EXTT10=
PLAYORDER=
